<svg width="24" height="24" viewBox="0 0 24 24" fill="none" xmlns="http://www.w3.org/2000/svg">
<mask id="path-1-inside-1_2320_121" fill="white">
<path d="M12.5 4C16.6421 4 20 7.35786 20 11.5C20 12.0425 19.9405 12.5712 19.8311 13.0811C19.9407 13.5338 20 14.0093 20 14.5C20 17.5376 17.7614 20 15 20C14.5087 20 14.0345 19.9206 13.5859 19.7754C12.4694 20.5402 11.0485 21 9.5 21C5.91015 21 3 18.5376 3 15.5C3 13.9405 3.76763 12.5331 5 11.5322C4.99995 11.5215 5 11.5107 5 11.5C5 7.35786 8.35786 4 12.5 4Z"/>
</mask>
<path d="M12.5 4C16.6421 4 20 7.35786 20 11.5C20 12.0425 19.9405 12.5712 19.8311 13.0811C19.9407 13.5338 20 14.0093 20 14.5C20 17.5376 17.7614 20 15 20C14.5087 20 14.0345 19.9206 13.5859 19.7754C12.4694 20.5402 11.0485 21 9.5 21C5.91015 21 3 18.5376 3 15.5C3 13.9405 3.76763 12.5331 5 11.5322C4.99995 11.5215 5 11.5107 5 11.5C5 7.35786 8.35786 4 12.5 4Z" fill="#045490"/>
<path d="M19.8311 13.0811L17.8756 12.6613L17.7798 13.1078L17.8872 13.5517L19.8311 13.0811ZM13.5859 19.7754L14.2021 17.8727L13.2668 17.5698L12.4556 18.1254L13.5859 19.7754ZM5 11.5322L6.26089 13.0847L7.00401 12.4811L6.99998 11.5238L5 11.5322ZM12.5 4V6C15.5376 6 18 8.46243 18 11.5H20H22C22 6.25329 17.7467 2 12.5 2V4ZM20 11.5H18C18 11.8957 17.9566 12.2837 17.8756 12.6613L19.8311 13.0811L21.7865 13.5008C21.9243 12.8587 22 12.1893 22 11.5H20ZM19.8311 13.0811L17.8872 13.5517C17.9603 13.8533 18 14.1709 18 14.5H20H22C22 13.8477 21.9211 13.2142 21.7749 12.6104L19.8311 13.0811ZM20 14.5H18C18 16.6166 16.4817 18 15 18V20V22C19.0411 22 22 18.4585 22 14.5H20ZM15 20V18C14.726 18 14.4594 17.956 14.2021 17.8727L13.5859 19.7754L12.9698 21.6781C13.6095 21.8853 14.2915 22 15 22V20ZM13.5859 19.7754L12.4556 18.1254C11.6799 18.6568 10.6548 19 9.5 19V21V23C11.4422 23 13.2589 22.4237 14.7162 21.4254L13.5859 19.7754ZM9.5 21V19C6.68851 19 5 17.1328 5 15.5H3H1C1 19.9423 5.13179 23 9.5 23V21ZM3 15.5H5C5 14.6319 5.42235 13.7657 6.26089 13.0847L5 11.5322L3.73911 9.97976C2.11291 11.3005 1 13.2491 1 15.5H3ZM5 11.5322L6.99998 11.5238C6.99998 11.5239 6.99998 11.5236 6.99998 11.5226C6.99998 11.5216 6.99998 11.5203 6.99998 11.5182C6.99998 11.5158 6.99999 11.5141 6.99999 11.5107C7 11.5077 7 11.504 7 11.5H5H3C3 11.5041 2.99999 11.5057 2.99998 11.514C2.99998 11.5205 2.99997 11.53 3.00002 11.5406L5 11.5322ZM5 11.5H7C7 8.46243 9.46243 6 12.5 6V4V2C7.25329 2 3 6.25329 3 11.5H5Z" fill="#E3E3E3" mask="url(#path-1-inside-1_2320_121)"/>
</svg>
