<svg width="24" height="24" viewBox="0 0 24 24" fill="none" xmlns="http://www.w3.org/2000/svg">
<g id="&#229;&#136;&#134;&#229;&#137;&#178;&#233;&#162;&#156;&#232;&#137;&#178;1">
<g id="Union">
<mask id="path-1-inside-1_104_3234" fill="white">
<path fill-rule="evenodd" clip-rule="evenodd" d="M16.9246 12C17.6024 10.9692 18 9.71568 18 8.36364C18 4.8491 15.3137 2 12 2C8.68629 2 6 4.8491 6 8.36364C6 9.71568 6.39755 10.9692 7.07544 12C6.39755 13.0308 6 14.2843 6 15.6364C6 19.1509 8.68629 22 12 22C15.3137 22 18 19.1509 18 15.6364C18 14.2843 17.6024 13.0308 16.9246 12Z"/>
</mask>
<path d="M16.9246 12L15.6713 11.1758L15.1292 12L15.6713 12.8242L16.9246 12ZM7.07544 12L8.3287 12.8242L8.87076 12L8.3287 11.1758L7.07544 12ZM16.5 8.36364C16.5 9.41917 16.1902 10.3868 15.6713 11.1758L18.1778 12.8242C19.0147 11.5517 19.5 10.0122 19.5 8.36364H16.5ZM12 3.5C14.4034 3.5 16.5 5.59315 16.5 8.36364H19.5C19.5 4.10505 16.2241 0.5 12 0.5V3.5ZM7.5 8.36364C7.5 5.59315 9.59665 3.5 12 3.5V0.5C7.77593 0.5 4.5 4.10505 4.5 8.36364H7.5ZM8.3287 11.1758C7.80981 10.3868 7.5 9.41917 7.5 8.36364H4.5C4.5 10.0122 4.9853 11.5517 5.82218 12.8242L8.3287 11.1758ZM7.5 15.6364C7.5 14.5808 7.80981 13.6132 8.3287 12.8242L5.82218 11.1758C4.9853 12.4483 4.5 13.9878 4.5 15.6364H7.5ZM12 20.5C9.59665 20.5 7.5 18.4068 7.5 15.6364H4.5C4.5 19.8949 7.77593 23.5 12 23.5V20.5ZM16.5 15.6364C16.5 18.4068 14.4034 20.5 12 20.5V23.5C16.2241 23.5 19.5 19.8949 19.5 15.6364H16.5ZM15.6713 12.8242C16.1902 13.6132 16.5 14.5808 16.5 15.6364H19.5C19.5 13.9878 19.0147 12.4483 18.1778 11.1758L15.6713 12.8242Z" fill="#AAC1D2" mask="url(#path-1-inside-1_104_3234)"/>
</g>
</g>
</svg>
