<svg width="24" height="24" viewBox="0 0 24 24" fill="none" xmlns="http://www.w3.org/2000/svg">
<g id="&#228;&#189;&#147;&#231;&#180;&#160;&#230;&#184;&#178;&#230;&#159;&#147;&#233;&#162;&#156;&#232;&#137;&#178;2" clip-path="url(#clip0_304_8251)">
<g id="1">
<path id="Union" fill-rule="evenodd" clip-rule="evenodd" d="M18.4624 7.37612C18.4665 7.38386 18.4729 7.39018 18.4807 7.39427L18.9766 7.654C18.991 7.66155 19 7.6764 19 7.69258V15.3408C19 15.3488 18.9978 15.3566 18.9937 15.3634C18.9895 15.3702 18.9836 15.3758 18.9765 15.3795L12.0202 18.995C12.014 18.9983 12.007 19 12 19C11.9929 19 11.986 18.9983 11.9797 18.9951L5.02369 15.4129C5.00913 15.4054 5 15.3905 5 15.3742V7.64248C5 7.6345 5.0022 7.62667 5.00637 7.61985C5.01053 7.61303 5.0165 7.60748 5.02362 7.60379L11.9796 4.00493C11.9859 4.00167 11.9929 3.99998 12 4C12.0071 4.00002 12.0141 4.00175 12.0203 4.00505L18.4133 7.359C18.4195 7.36225 18.4263 7.36398 18.4333 7.36405C18.4403 7.36412 18.4472 7.36254 18.4535 7.35942L18.4624 7.37612ZM11.9986 10.744L17.2043 8.01504C17.2355 7.99868 17.2355 7.95427 17.2043 7.93789L12.017 5.21727C12.0107 5.21398 12.0037 5.21225 11.9966 5.21223C11.9895 5.21221 11.9825 5.2139 11.9762 5.21715L6.73574 7.92799C6.70435 7.94424 6.70422 7.98883 6.73552 8.00524L11.9576 10.744C11.9704 10.7507 11.9858 10.7507 11.9986 10.744ZM11.4706 11.7031L6.14384 8.90889C6.11463 8.89357 6.0795 8.91462 6.0795 8.94746V11.1978C8.57048 12.0705 9.06815 12.5682 10 13.5C10.6742 14.1742 11.1211 14.3938 11.494 14.3122V11.7417C11.494 11.7338 11.4918 11.726 11.4877 11.7192C11.4836 11.7124 11.4776 11.7068 11.4706 11.7031ZM17.9205 10.9591C17.6758 11.1273 17.3658 11.3171 17 11.5C16.5616 11.7192 16.3153 12.0346 16.0928 12.3196C15.8078 12.6847 15.5616 13 15 13C14.2625 13 13.2532 13.2719 12.5735 13.6152V11.6831C12.5735 11.6669 12.5825 11.6521 12.5969 11.6445L17.8562 8.8855C17.8854 8.87017 17.9205 8.89122 17.9205 8.92406V10.9591Z" fill="#A582EC"/>
</g>
</g>
<defs>
<clipPath id="clip0_304_8251">
<rect width="24" height="24" fill="white"/>
</clipPath>
</defs>
</svg>
