<svg width="24" height="24" viewBox="0 0 24 24" fill="none" xmlns="http://www.w3.org/2000/svg">
<path d="M19.125 14.5C19.125 14.5 19.9583 12 19.625 10C19.625 10 20.5 3.00001 12 2.50001C3.5 2.00001 4.125 10 4.125 10C4.125 10 5.12503 14 4.12508 15C3.12514 16 3.62488 17.5 3.62488 17.5L4.125 20.5L9.625 19.5L11.625 18H12.625L19.125 14.5Z" fill="#045490"/>
<path d="M5.96024 9C5.96024 9 5.80658 9.2263 6.5 10.5C6.86743 11.1717 6.86687 12.3833 7.48714 12.3632C8.23622 12.3399 8.67496 11.4363 8.5 10.5C8.29326 9.38418 6.53918 8.85375 5.96024 9ZM20.4226 7.57095C19.1088 1.88892 12.3333 1.53297 12.3333 1.53297C6.08035 1.71482 3.88785 5.00426 3.49339 6.23772C3.09893 7.47118 3.56973 8.25734 3.56973 8.25734C3.80595 9.06056 4.10411 10.2708 3.50773 11.091C2.91128 11.9113 3.03698 11.7627 3.22062 12.2687C3.40276 12.7748 4.03578 13.414 3.96338 13.8597C3.88944 14.3054 3.46958 14.2822 3.32241 14.1537C2.98124 13.8597 2.93831 14.1615 2.99556 14.5128C3.05442 14.8641 3.17846 14.4741 3.11802 15.2557C3.07348 15.8282 3.07984 15.5064 3.10529 15.9026C3.10529 15.9026 3.07667 16.322 3.4632 16.3483C3.9559 16.3786 3.93237 16.5061 4.3268 16.5061C5.19014 16.5061 6.48404 16.4936 8 16.5C8.43262 16.5 8.5 15.9397 8.5 15.9397C8.96126 15.3068 8.98221 15.4429 9.28278 15.039C9.51815 14.7248 9.89986 14.4911 9.89986 14.4911C10.0963 14.4911 10.3134 14.2218 10.4518 14.2234C10.3023 14.943 9.91741 15.8391 9.5643 16.5293C9.19531 17.2474 8.94238 16.9735 8.94238 16.9735C8.33197 16.8168 7.68221 16.8665 7 16.8714C5.83989 16.8798 4.67616 17.0611 3.62221 16.8714C3.20233 16.7506 3.38201 17.7365 3.38201 17.7365C3.46555 18.0599 3.42499 18.2471 3.31047 18.7424C3.17688 19.3088 2.95258 20.1306 3.29217 20.5871C3.68502 21.1164 4.73474 21.0143 5.96024 20.7203C7.18727 20.4247 8.31494 20.0176 9.28438 19.9634C10.7953 19.8783 11.084 19.2299 11.5349 18.9653L12.7254 18.7501C13.6804 18.7501 14.9186 17.1987 15.1182 16.9403C15.255 16.989 15.4116 17.0152 15.5946 17.0152C16.2603 17.0152 16.6332 16.8837 17.4714 16.4458C18.7828 15.7601 19.6813 14.8672 19.714 14.8177C21.1813 12.5906 21.2186 11.0167 20.4226 7.57095ZM18.7168 13.8953C18.6882 13.9371 17.8731 14.6397 16.7597 15.2216C16.0479 15.593 15.7441 15.6425 15.302 15.3005C14.8535 14.9539 14.867 14.652 14.587 13.9294C14.4781 13.6461 14 13.5827 14 13.5827V14C14 14 13.8121 16.6015 12.7715 17.2134L11.6916 17.5291C11.6104 17.5291 11.3059 17.5833 11.2375 17.5523C10.9576 17.7644 10.8757 18.0429 10.144 18.3679C9.09189 18.8353 8.35072 18.9607 7.30899 19.2129C6.65368 19.3707 4.58127 19.8242 4.39281 19.3847C4.22183 18.9869 4.52954 18.6434 4.45878 18.3679C4.45878 18.3679 4.13119 17.738 4.78484 17.7783C5.04438 17.724 8.93463 17.3672 9.03066 17.8139C9.03066 17.8139 10.1337 16.5974 10.8001 15.8964C11.3187 15.3517 11.6261 13.864 11.7532 13.2493C11.5675 13.2739 10.0336 13.3797 9.09187 13.5827C9.26126 13.5456 8.19723 14.7651 8.19883 14.8487C8.19564 14.974 8.28572 15.2494 7.81473 15.2943C7.34375 15.3392 5.58508 15.4108 4.45878 15.3392C4.15157 15.319 4.31828 14.7912 4.27318 14.8068C4.26768 14.8087 4.26668 14.8105 4.27318 14.8068C4.28752 14.7986 4.33834 14.7631 4.45878 14.6397C5.04089 14.0439 5.10608 13.3707 5.09973 13.4062C5.16177 13.0271 5.04089 12.5009 4.88661 12.0707C4.73071 11.6412 4.62257 11.2365 5.12997 10.5408C5.63653 9.84363 5.31524 9.37933 5.11404 8.69682C5.11404 8.69682 4.78326 7.9958 5.11726 6.94805C5.45282 5.90111 6.396 3.53713 11.7066 3.3831C11.7066 3.3831 17.6821 3.25853 18.8161 8.08089C19.5041 11.0074 20.0289 12.0072 18.7168 13.8953ZM11.8268 9.71875C11.0538 8.17422 11.8268 6.54877 11.8268 6.54877C11.8268 6.54877 11.0721 7.89831 11.2041 9.43816C11.2661 10.1702 12.0845 10.749 12.8065 11.3263C13.9272 12.2211 15.0803 12.3637 15.5785 12.3799C14.9542 12.2318 12.6449 11.354 11.8268 9.71875ZM15.5785 12.3799C15.6854 12.4052 15.7723 12.4049 15.8332 12.3771C15.8332 12.3771 15.7403 12.3851 15.5785 12.3799Z" fill="#D9D9D9"/>
</svg>
