<svg width="24" height="24" viewBox="0 0 24 24" fill="none" xmlns="http://www.w3.org/2000/svg">
<path d="M7.2924 7.85447H4.04836C4.04836 7.85447 5.01106 10.0748 4.77 11.8973C4.52894 13.7197 3.80807 15.9472 4.04836 19.1942C4.56901 19.1942 6.06687 19.3157 7.89315 19.8016C10.176 20.4091 9.21479 17.9792 11.8581 18.1817C14.5014 18.3842 12.9394 19.1942 15.7029 19.8016C17.9136 20.2876 19.7879 19.8016 19.7879 19.1942C19.7879 18.5867 19.0663 17.1621 19.7879 13.9222C20.5096 10.6823 19.1872 8.25946 18.8267 7.85447H15.3424C15.1822 6.6395 14.1409 4.16907 11.2573 4.00708C8.37374 3.84508 7.41255 6.50451 7.2924 7.85447Z" fill="#045490" stroke="#E3E3E3" stroke-width="2"/>
<circle cx="9" cy="12" r="1" fill="#D9D9D9"/>
<circle cx="13.5" cy="10.5" r="1.5" fill="#D9D9D9"/>
<circle cx="14.5" cy="15.5" r="0.5" fill="#D9D9D9"/>
</svg>
