<svg width="24" height="24" viewBox="0 0 24 24" fill="none" xmlns="http://www.w3.org/2000/svg">
<g id="&#228;&#189;&#147;&#231;&#180;&#160;&#230;&#184;&#178;&#230;&#159;&#147;&#233;&#162;&#156;&#232;&#137;&#178;1" clip-path="url(#clip0_304_8241)">
<g id="1">
<path id="Vector" d="M18.4807 7.39427C18.4729 7.39018 18.4665 7.38386 18.4624 7.37612L18.4535 7.35942C18.4472 7.36253 18.4403 7.36412 18.4333 7.36405C18.4263 7.36398 18.4195 7.36225 18.4133 7.359L12.0203 4.00505C12.0141 4.00175 12.0071 4.00002 12 4C11.9929 3.99998 11.9859 4.00167 11.9796 4.00493L5.02362 7.60379C5.0165 7.60748 5.01053 7.61303 5.00637 7.61985C5.0022 7.62667 5 7.6345 5 7.64248V15.3742C5 15.3905 5.00913 15.4054 5.02369 15.4129L11.9797 18.9951C11.986 18.9983 11.9929 19 12 19C12.007 19 12.014 18.9983 12.0202 18.995L18.9765 15.3795C18.9836 15.3758 18.9895 15.3702 18.9937 15.3634C18.9978 15.3566 19 15.3488 19 15.3408V7.69258C19 7.6764 18.991 7.66155 18.9766 7.654L18.4807 7.39427ZM17.2043 8.01504L11.9986 10.744C11.9858 10.7507 11.9704 10.7507 11.9576 10.744L6.73552 8.00524C6.70422 7.98883 6.70435 7.94423 6.73574 7.92799L11.9762 5.21715C11.9825 5.2139 11.9895 5.21221 11.9966 5.21223C12.0037 5.21225 12.0107 5.21398 12.017 5.21727L17.2043 7.93789C17.2355 7.95427 17.2355 7.99868 17.2043 8.01504ZM6.14384 8.90889L11.4706 11.7031C11.4776 11.7068 11.4836 11.7124 11.4877 11.7192C11.4918 11.726 11.494 11.7338 11.494 11.7417V17.4651C11.494 17.4978 11.4591 17.5189 11.4299 17.5038L6.10319 14.7607C6.09605 14.7571 6.09007 14.7515 6.08589 14.7447C6.08171 14.7379 6.0795 14.73 6.0795 14.722V8.94746C6.0795 8.91462 6.11463 8.89357 6.14384 8.90889ZM16.0279 15.7009L14.407 16.5443L12.6377 17.4632C12.6084 17.4784 12.5735 17.4573 12.5735 17.4246V11.6831C12.5735 11.6669 12.5825 11.6521 12.5969 11.6445L17.8562 8.8855C17.8854 8.87017 17.9205 8.89122 17.9205 8.92406V14.6903C17.9205 14.7066 17.9114 14.7214 17.897 14.729L16.0279 15.7009Z" fill="#A582EC"/>
</g>
</g>
<defs>
<clipPath id="clip0_304_8241">
<rect width="24" height="24" fill="white"/>
</clipPath>
</defs>
</svg>
