<svg width="24" height="24" viewBox="0 0 24 24" fill="none" xmlns="http://www.w3.org/2000/svg">
<path d="M19.9814 12C19.9566 12.3682 19.9066 12.7292 19.8311 13.0811C19.9407 13.5338 20 14.0093 20 14.5C20 17.5376 17.7614 20 15 20C14.5087 20 14.0345 19.9206 13.5859 19.7754C12.4694 20.5403 11.0485 21 9.5 21C5.91015 21 3 18.5376 3 15.5C3 14.1695 3.55995 12.9511 4.48926 12H19.9814Z" fill="#045490"/>
<path d="M14.2021 17.873C14.4594 17.9563 14.726 18 15 18V20C14.5087 20 14.0345 19.9206 13.5859 19.7754C12.4694 20.5403 11.0485 21 9.5 21V19C10.6548 19 11.6803 18.6564 12.4561 18.125L13.2666 17.5693L14.2021 17.873ZM18 14.5C18 14.171 17.9607 13.8534 17.8877 13.5518L17.7793 13.1074L17.876 12.6611C17.957 12.2836 18 11.8956 18 11.5C18 8.46243 15.5376 6 12.5 6C9.46243 6 7 8.46243 7 11.5V11.5234L7.00391 12.4814L6.26074 13.085C5.42235 13.766 5 14.6319 5 15.5C5 17.1328 6.68851 19 9.5 19V21C5.91015 21 3 18.5376 3 15.5C3 13.9405 3.76763 12.5331 5 11.5322C4.99995 11.5215 5 11.5107 5 11.5C5 7.35786 8.35786 4 12.5 4C16.6421 4 20 7.35786 20 11.5C20 12.0425 19.9405 12.5712 19.8311 13.0811C19.9407 13.5338 20 14.0093 20 14.5C20 17.5376 17.7614 20 15 20V18C16.4817 18 18 16.6166 18 14.5Z" fill="#E3E3E3"/>
</svg>
