<svg width="24" height="24" viewBox="0 0 24 24" fill="none" xmlns="http://www.w3.org/2000/svg">
<path d="M18.5813 11C18.2165 12.2564 17.6959 13.8201 17.4007 14.6689V17.4502L10.6946 20V16.7549C10.676 16.7585 8.37149 17.2094 7.85672 16.7549C7.34379 16.3 7.85124 13.3096 7.85672 13.2773H5.01981C4.88313 12.9034 5.47782 11.8782 6.06278 11H18.5813Z" fill="#045490"/>
<path d="M10.6944 16.7549V20L17.4005 17.4503V14.6688C17.8304 13.4326 18.7418 10.6821 18.9481 9.56947C19.206 8.17873 18.6902 4.23831 13.0158 4.00652C8.47624 3.82109 7.1694 7.63789 7.08343 9.56947C7.08343 9.56947 4.76209 12.5762 5.02 13.2781H7.85721C7.85721 13.2781 7.34135 16.2979 7.85721 16.7549C8.37306 17.212 10.6944 16.7549 10.6944 16.7549Z" stroke="#E3E3E3" stroke-width="2"/>
</svg>
