<svg width="24" height="24" viewBox="0 0 24 24" fill="none" xmlns="http://www.w3.org/2000/svg">
<path d="M19.943 13C19.9087 13.2988 19.8589 13.6065 19.7887 13.9219C19.067 17.1618 19.7887 18.5869 19.7887 19.1943C19.7883 19.8017 17.9133 20.2877 15.7027 19.8018C12.9398 19.1943 14.5012 18.3841 11.858 18.1816C9.21517 17.9794 10.1759 20.4092 7.89317 19.8018C6.067 19.3158 4.56907 19.1943 4.04845 19.1943C3.85445 16.573 4.28583 14.6157 4.58653 13H19.943Z" fill="#045490"/>
<path d="M11.3135 3.00879L11.6367 3.03516C13.2216 3.2098 14.3508 3.98586 15.0977 4.90625C15.6098 5.53751 15.9398 6.23434 16.1348 6.85449H19.2754L19.5742 7.18946C19.8919 7.54644 20.3687 8.41288 20.6787 9.56543C20.979 10.6821 21.1443 12.1417 20.833 13.8047L20.7637 14.1397C20.4264 15.6538 20.4333 16.7106 20.5117 17.4385C20.5514 17.8067 20.6105 18.1044 20.665 18.3652C20.7088 18.5743 20.7881 18.9108 20.7881 19.1943C20.788 19.8976 20.2629 20.3028 19.9668 20.4766C19.6199 20.6801 19.1923 20.8114 18.7549 20.8916C17.9774 21.0342 16.9952 21.0463 15.9434 20.8672L15.4883 20.7783C14.7391 20.6136 14.2097 20.4201 13.8057 20.1855C13.3827 19.94 13.1489 19.6756 13.0068 19.5244C12.8959 19.4064 12.8712 19.3878 12.7949 19.3555C12.7035 19.3167 12.5272 19.263 12.1836 19.2188L11.7812 19.1787C11.2749 19.14 11.0576 19.2334 10.958 19.293C10.8332 19.3676 10.7396 19.4755 10.5439 19.7393C10.3854 19.9531 10.0765 20.4026 9.55957 20.667C9.06169 20.9216 8.50613 20.9528 7.89941 20.8301L7.63574 20.7676C5.88677 20.3022 4.47587 20.1944 4.04883 20.1943H3.12012L3.05078 19.2676C2.80063 15.8864 3.56207 13.4008 3.77832 11.7666C3.87309 11.0501 3.73263 10.1901 3.53418 9.45215C3.43807 9.09479 3.3346 8.7887 3.25586 8.57324C3.21662 8.46589 3.18339 8.38151 3.16113 8.32617C3.15012 8.29879 3.14197 8.27817 3.13672 8.26563C3.13413 8.25944 3.13183 8.25521 3.13086 8.25293C3.13041 8.25187 3.12993 8.25109 3.12988 8.25098H3.13086L2.52441 6.85449H6.45801C6.62905 6.18386 6.93612 5.42719 7.44141 4.75977C8.23147 3.71637 9.49755 2.90678 11.3135 3.00879ZM11.2012 5.00586C10.1337 4.94591 9.47761 5.38464 9.03613 5.96778C8.55991 6.59686 8.33585 7.40671 8.28809 7.94336L8.20703 8.85449H5.44141C5.44858 8.88047 5.45772 8.90615 5.46484 8.93262C5.68746 9.76043 5.90797 10.9224 5.76172 12.0283C5.52135 13.8455 4.94393 15.6289 5.00488 18.2529C5.79495 18.3323 6.9045 18.5034 8.15039 18.835L8.29785 18.8701C8.42944 18.8967 8.51677 18.9015 8.57031 18.8994C8.60439 18.8981 8.62447 18.894 8.63379 18.8916C8.64241 18.8894 8.64636 18.8868 8.64844 18.8857C8.67595 18.8717 8.72062 18.8403 8.9375 18.5479C9.11719 18.3056 9.42124 17.8821 9.93066 17.5772C10.4656 17.2571 11.1197 17.1221 11.9346 17.1846L12.4287 17.2344C12.8921 17.2934 13.2648 17.3825 13.5762 17.5147C14.0364 17.71 14.2895 17.9697 14.4639 18.1553C14.6071 18.3077 14.666 18.3727 14.8096 18.4561C14.9725 18.5506 15.2855 18.6862 15.918 18.8252L16.2832 18.8965C17.1232 19.0391 17.8675 19.0213 18.3936 18.9248C18.5263 18.9005 18.6349 18.8707 18.7217 18.8438C18.7171 18.8219 18.7131 18.7988 18.708 18.7744C18.6498 18.4961 18.5739 18.121 18.5234 17.6523C18.4215 16.7062 18.4272 15.4306 18.8115 13.7051L18.8662 13.4375C19.1145 12.1119 18.982 10.9584 18.7471 10.085C18.6216 9.61844 18.4685 9.23571 18.332 8.95606C18.3144 8.92001 18.296 8.88659 18.2793 8.85449H14.4658L14.3506 7.98535C14.2911 7.53395 14.0532 6.79248 13.5449 6.16602C13.0903 5.60573 12.4195 5.13176 11.4082 5.02246L11.2012 5.00586Z" fill="#E3E3E3"/>
<circle cx="9" cy="12" r="1" fill="#D9D9D9"/>
<circle cx="13.5" cy="10.5" r="1.5" fill="#D9D9D9"/>
<circle cx="14.5" cy="15.5" r="0.5" fill="#D9D9D9"/>
</svg>
