<svg width="24" height="24" viewBox="0 0 24 24" fill="none" xmlns="http://www.w3.org/2000/svg">
<g id="&#233;&#128;&#154;&#233;&#129;&#147;&#233;&#162;&#156;&#232;&#137;&#178;2">
<g id="Union">
<mask id="path-1-inside-1_105_3255" fill="white">
<path fill-rule="evenodd" clip-rule="evenodd" d="M11.5 3.5C9.01472 3.5 7 3.90059 7 4.39474V19.6053C7 20.0994 9.01472 20.5 11.5 20.5C13.9853 20.5 16 20.0994 16 19.6053V4.39474C16 3.90059 13.9853 3.5 11.5 3.5Z"/>
</mask>
<path d="M8.5 4.39474C8.5 4.88176 8.24528 5.18473 8.13673 5.29021C8.03028 5.39365 7.95416 5.42163 7.99177 5.40395C8.05912 5.37229 8.25219 5.30451 8.61054 5.23326C9.30252 5.09568 10.3249 5 11.5 5V2C10.1898 2 8.9622 2.10462 8.0255 2.29086C7.56951 2.38153 7.10357 2.50655 6.71549 2.68898C6.52539 2.77834 6.27246 2.91869 6.04612 3.13862C5.81768 3.36059 5.5 3.78417 5.5 4.39474H8.5ZM8.5 19.6053V4.39474H5.5V19.6053H8.5ZM11.5 19C10.3249 19 9.30252 18.9043 8.61054 18.7667C8.25219 18.6955 8.05912 18.6277 7.99177 18.596C7.95416 18.5784 8.03028 18.6064 8.13673 18.7098C8.24528 18.8153 8.5 19.1182 8.5 19.6053H5.5C5.5 20.2158 5.81768 20.6394 6.04612 20.8614C6.27246 21.0813 6.52539 21.2217 6.71549 21.311C7.10357 21.4935 7.56951 21.6185 8.0255 21.7091C8.9622 21.8954 10.1898 22 11.5 22V19ZM14.5 19.6053C14.5 19.1182 14.7547 18.8153 14.8633 18.7098C14.9697 18.6064 15.0458 18.5784 15.0082 18.596C14.9409 18.6277 14.7478 18.6955 14.3895 18.7667C13.6975 18.9043 12.6751 19 11.5 19V22C12.8102 22 14.0378 21.8954 14.9745 21.7091C15.4305 21.6185 15.8964 21.4935 16.2845 21.311C16.4746 21.2217 16.7275 21.0813 16.9539 20.8614C17.1823 20.6394 17.5 20.2158 17.5 19.6053H14.5ZM14.5 4.39474V19.6053H17.5V4.39474H14.5ZM11.5 5C12.6751 5 13.6975 5.09568 14.3895 5.23326C14.7478 5.30451 14.9409 5.37229 15.0082 5.40395C15.0458 5.42163 14.9697 5.39365 14.8633 5.29021C14.7547 5.18473 14.5 4.88176 14.5 4.39474H17.5C17.5 3.78417 17.1823 3.36059 16.9539 3.13862C16.7275 2.91869 16.4746 2.77834 16.2845 2.68898C15.8964 2.50655 15.4305 2.38153 14.9745 2.29086C14.0378 2.10462 12.8102 2 11.5 2V5Z" fill="#D94933" mask="url(#path-1-inside-1_105_3255)"/>
</g>
<path id="Rectangle 194" d="M8 12.0001C8 12.0001 8.57311 12.3674 9.78655 11.6838C11 11.0001 11.5 11.5001 11.5 11.5001C11.5 11.5001 12 12.5001 13.5 11.7295C15 10.9588 15 12.0001 15 12.0001V19.0001H8V12.0001Z" fill="#D94933"/>
</g>
</svg>
