<svg width="24" height="24" viewBox="0 0 24 24" fill="none" xmlns="http://www.w3.org/2000/svg">
<g id="&#232;&#132;&#145;&#229;&#140;&#186;&#229;&#136;&#134;&#229;&#137;&#178;&#233;&#162;&#156;&#232;&#137;&#178;1" clip-path="url(#clip0_304_8272)">
<g id="&#232;&#132;&#145;&#229;&#140;&#186;&#229;&#136;&#134;&#229;&#137;&#178;&#233;&#162;&#156;&#232;&#137;&#178;q">
<path id="Vector" d="M8.50076 7.80017C8.50076 7.96608 8.52875 8.12358 8.58124 8.26918C8.61988 8.37801 8.631 8.49471 8.61361 8.60888C8.59622 8.72304 8.55086 8.83114 8.48157 8.92352C8.41229 9.0159 8.32122 9.0897 8.2165 9.13834C8.11178 9.18698 7.99666 9.20895 7.88139 9.20229C7.60472 9.18617 7.32949 9.25256 7.09058 9.39305C6.85167 9.53354 6.65984 9.74181 6.53939 9.99146C6.41894 10.2411 6.37529 10.5209 6.41399 10.7954C6.45268 11.0699 6.57197 11.3267 6.75673 11.5333C6.87172 11.6616 6.93538 11.8278 6.93551 12.0001C6.93563 12.1724 6.87223 12.3387 6.75743 12.4671C6.60265 12.6404 6.49339 12.8495 6.43952 13.0755C6.38565 13.3016 6.38885 13.5375 6.44883 13.762C6.50881 13.9865 6.6237 14.1925 6.78313 14.3616C6.94256 14.5306 7.14152 14.6573 7.3621 14.7303C7.52327 14.7833 7.65968 14.8932 7.74593 15.0393C7.83219 15.1855 7.86242 15.358 7.831 15.5248C7.79314 15.7515 7.80028 15.9834 7.85203 16.2073C7.90378 16.4312 7.99912 16.6428 8.1326 16.8299C8.40218 17.2077 8.81077 17.4629 9.26849 17.5394C9.72621 17.6159 10.1956 17.5074 10.5733 17.2377C10.951 16.9681 11.2062 16.5594 11.2827 16.1016C11.2869 16.0715 11.2925 16.0435 11.3002 16.0155V7.80017C11.3002 7.42887 11.1527 7.07277 10.8902 6.81021C10.6277 6.54766 10.2717 6.40016 9.90045 6.40016C9.52923 6.40016 9.17321 6.54766 8.91072 6.81021C8.64822 7.07277 8.50076 7.42887 8.50076 7.80017ZM12.6998 16.0155C12.7068 16.0435 12.7138 16.0715 12.7173 16.1009C12.7552 16.3276 12.8373 16.5446 12.9589 16.7395C13.0806 16.9345 13.2395 17.1036 13.4265 17.2371C13.6135 17.3707 13.8249 17.4661 14.0488 17.5179C14.2727 17.5697 14.5045 17.5769 14.7312 17.539C14.9578 17.5012 15.1748 17.4191 15.3697 17.2974C15.5646 17.1757 15.7336 17.0168 15.8672 16.8298C16.0007 16.6427 16.096 16.4312 16.1478 16.2073C16.1996 15.9834 16.2068 15.7515 16.169 15.5248C16.1376 15.358 16.1678 15.1855 16.2541 15.0393C16.3403 14.8932 16.4767 14.7833 16.6379 14.7303C16.8585 14.6573 17.0574 14.5306 17.2169 14.3616C17.3763 14.1925 17.4912 13.9865 17.5512 13.762C17.6112 13.5375 17.6144 13.3016 17.5605 13.0755C17.5066 12.8495 17.3974 12.6404 17.2426 12.4671C17.1277 12.3388 17.0641 12.1725 17.0641 12.0002C17.0641 11.8279 17.1277 11.6617 17.2426 11.5333C17.4273 11.3267 17.5466 11.0699 17.5853 10.7954C17.624 10.5209 17.5804 10.2411 17.4599 9.99146C17.3395 9.74181 17.1476 9.53354 16.9087 9.39305C16.6698 9.25256 16.3946 9.18617 16.1179 9.20229C16.0027 9.20883 15.8877 9.18677 15.783 9.13808C15.6784 9.08939 15.5874 9.01557 15.5182 8.92321C15.449 8.83085 15.4037 8.7228 15.3864 8.60869C15.369 8.49458 15.3801 8.37795 15.4188 8.26918C15.4869 8.07701 15.5122 7.87227 15.493 7.66928C15.4738 7.46629 15.4105 7.26994 15.3075 7.09398C15.2045 6.91802 15.0643 6.76668 14.8968 6.65055C14.7292 6.53441 14.5383 6.45629 14.3374 6.42164C14.1365 6.38699 13.9305 6.39664 13.7337 6.44993C13.537 6.50322 13.3542 6.59885 13.1983 6.73015C13.0423 6.86144 12.9169 7.02523 12.8308 7.21005C12.7447 7.39487 12.7 7.59628 12.6998 7.80017V16.0155ZM9.90045 5.00014C10.2977 4.99967 10.6904 5.08397 11.0525 5.24742C11.4145 5.41086 11.7376 5.64969 12 5.94795C12.3811 5.5158 12.8861 5.21175 13.4463 5.07729C14.0065 4.94284 14.5945 4.98453 15.1301 5.19667C15.6658 5.40881 16.1229 5.78107 16.4392 6.26267C16.7555 6.74426 16.9156 7.31174 16.8975 7.88768C17.3156 7.99553 17.7031 8.19859 18.0297 8.48101C18.3563 8.76343 18.6132 9.11755 18.7804 9.51571C18.9475 9.91387 19.0204 10.3453 18.9933 10.7763C18.9662 11.2073 18.8398 11.6262 18.6241 12.0002C18.8082 12.3187 18.9278 12.6703 18.9759 13.035C19.0241 13.3997 18.9998 13.7703 18.9046 14.1257C18.8094 14.481 18.645 14.8141 18.421 15.1058C18.1969 15.3975 17.9175 15.6422 17.5988 15.8258V15.8503C17.5987 16.5016 17.3968 17.137 17.0207 17.6688C16.6447 18.2006 16.1131 18.6028 15.4991 18.8199C14.8851 19.037 14.2189 19.0584 13.5923 18.8811C12.9656 18.7038 12.4093 18.3365 12 17.8299C11.5907 18.3365 11.0344 18.7038 10.4077 18.8811C9.78109 19.0584 9.1149 19.037 8.5009 18.8199C7.8869 18.6028 7.35528 18.2006 6.97925 17.6688C6.60322 17.137 6.40127 16.5016 6.40121 15.8503V15.8258C6.0825 15.6422 5.80312 15.3975 5.57905 15.1058C5.35498 14.8141 5.19063 14.481 5.0954 14.1257C5.00017 13.7703 4.97593 13.3997 5.02406 13.035C5.0722 12.6703 5.19177 12.3187 5.37593 12.0002C5.16033 11.6262 5.03407 11.2074 5.00703 10.7765C4.97998 10.3456 5.05288 9.91423 5.22002 9.51616C5.38717 9.11809 5.64404 8.76405 5.97058 8.48168C6.29712 8.19931 6.6845 7.99626 7.10246 7.88838C7.09065 7.51343 7.15428 7.13994 7.28957 6.79007C7.42487 6.4402 7.62907 6.12109 7.89006 5.85169C8.15104 5.58229 8.46349 5.36809 8.80884 5.22181C9.15419 5.07552 9.52541 5.00014 9.90045 5.00014Z" fill="#C0CF6B"/>
</g>
</g>
<defs>
<clipPath id="clip0_304_8272">
<rect width="24" height="24" fill="white"/>
</clipPath>
</defs>
</svg>
