<svg width="24" height="24" viewBox="0 0 24 24" fill="none" xmlns="http://www.w3.org/2000/svg">
<g id="&#232;&#132;&#145;&#229;&#140;&#186;&#229;&#136;&#134;&#229;&#137;&#178;&#233;&#162;&#156;&#232;&#137;&#178;1" clip-path="url(#clip0_304_8276)">
<g id="&#232;&#132;&#145;&#229;&#140;&#186;&#229;&#136;&#134;&#229;&#137;&#178;&#233;&#162;&#156;&#232;&#137;&#178;q">
<path id="Union" fill-rule="evenodd" clip-rule="evenodd" d="M11.0525 5.24742C10.6904 5.08397 10.2977 4.99967 9.90045 5.00014C9.52541 5.00014 9.15419 5.07552 8.80884 5.22181C8.46349 5.36809 8.15104 5.58229 7.89006 5.85169C7.62907 6.12109 7.42487 6.4402 7.28957 6.79007C7.15428 7.13994 7.09065 7.51343 7.10246 7.88838C6.6845 7.99626 6.29712 8.19931 5.97058 8.48168C5.64404 8.76405 5.38717 9.11809 5.22002 9.51616C5.05288 9.91423 4.97998 10.3456 5.00703 10.7765C5.03407 11.2074 5.16033 11.6262 5.37593 12.0002C5.19177 12.3187 5.0722 12.6703 5.02406 13.035C4.97593 13.3997 5.00017 13.7703 5.0954 14.1257C5.19063 14.481 5.35498 14.8141 5.57905 15.1058C5.80312 15.3975 6.0825 15.6422 6.40121 15.8258V15.8503C6.40127 16.5016 6.60322 17.137 6.97925 17.6688C7.35528 18.2006 7.8869 18.6028 8.5009 18.8199C9.1149 19.037 9.78109 19.0584 10.4077 18.8811C11.0344 18.7038 11.5907 18.3365 12 17.8299C12.4093 18.3365 12.9656 18.7038 13.5923 18.8811C14.2189 19.0584 14.8851 19.037 15.4991 18.8199C16.1131 18.6028 16.6447 18.2006 17.0207 17.6688C17.3968 17.137 17.5987 16.5016 17.5988 15.8503V15.8258C17.9175 15.6422 18.1969 15.3975 18.421 15.1058C18.645 14.8141 18.8094 14.481 18.9046 14.1257C18.9998 13.7703 19.0241 13.3997 18.9759 13.035C18.9278 12.6703 18.8082 12.3187 18.6241 12.0002C18.8398 11.6262 18.9662 11.2073 18.9933 10.7763C19.0204 10.3453 18.9475 9.91387 18.7804 9.51571C18.6132 9.11755 18.3563 8.76343 18.0297 8.48101C17.7031 8.19859 17.3156 7.99553 16.8975 7.88768C16.9156 7.31174 16.7555 6.74426 16.4392 6.26267C16.1229 5.78107 15.6658 5.40881 15.1301 5.19667C14.5945 4.98453 14.0065 4.94284 13.4463 5.07729C12.8861 5.21175 12.3811 5.5158 12 5.94795C11.7376 5.64969 11.4145 5.41086 11.0525 5.24742ZM8.58124 8.26918C8.52875 8.12358 8.50076 7.96608 8.50076 7.80017C8.50076 7.42887 8.64822 7.07277 8.91072 6.81021C9.17321 6.54766 9.52923 6.40016 9.90045 6.40016C10.2717 6.40016 10.6277 6.54766 10.8902 6.81021C11.1527 7.07277 11.3002 7.42887 11.3002 7.80017V11.5259C11.2428 11.5355 11.1845 11.5477 11.125 11.5625C10.3401 11.7588 9.99524 12.043 9.73517 12.2574C9.41541 12.5209 9.22381 12.6788 8.5 12.4376C7.81537 12.2095 7.30929 12.0705 6.93521 12.0209C6.93541 12.014 6.93551 12.007 6.93551 12.0001C6.93538 11.8278 6.87172 11.6616 6.75673 11.5333C6.57197 11.3267 6.45268 11.0699 6.41399 10.7954C6.37529 10.5209 6.41894 10.2411 6.53939 9.99146C6.65984 9.74181 6.85167 9.53354 7.09058 9.39305C7.32949 9.25256 7.60472 9.18617 7.88139 9.20229C7.99666 9.20895 8.11178 9.18698 8.2165 9.13834C8.32123 9.0897 8.41229 9.0159 8.48157 8.92352C8.55086 8.83114 8.59622 8.72304 8.61361 8.60888C8.631 8.49471 8.61988 8.37801 8.58124 8.26918ZM17.1126 12.2562C17.0808 12.1753 17.0641 12.0886 17.0641 12.0002C17.0641 11.8279 17.1277 11.6617 17.2426 11.5333C17.4273 11.3267 17.5466 11.0699 17.5853 10.7954C17.624 10.5209 17.5804 10.2411 17.4599 9.99146C17.3395 9.74181 17.1476 9.53354 16.9087 9.39305C16.6698 9.25256 16.3946 9.18617 16.1179 9.20229C16.0027 9.20883 15.8877 9.18677 15.783 9.13808C15.6784 9.08939 15.5874 9.01557 15.5182 8.92321C15.449 8.83085 15.4037 8.7228 15.3864 8.60869C15.369 8.49458 15.3801 8.37795 15.4188 8.26918C15.4869 8.07701 15.5122 7.87227 15.493 7.66928C15.4738 7.46629 15.4105 7.26994 15.3075 7.09398C15.2045 6.91802 15.0643 6.76668 14.8968 6.65055C14.7292 6.53441 14.5383 6.45629 14.3374 6.42164C14.1365 6.38699 13.9305 6.39664 13.7337 6.44993C13.537 6.50322 13.3542 6.59885 13.1983 6.73015C13.0423 6.86144 12.9169 7.02523 12.8308 7.21005C12.7447 7.39487 12.7 7.59628 12.6998 7.80017V11.7671C12.8681 11.8465 13.0322 11.9363 13.1964 12.0262C13.8642 12.3917 14.5352 12.759 15.5 12.4374C16.2297 12.1942 16.7453 12.1651 17.1126 12.2562Z" fill="#BFCF6B"/>
</g>
</g>
<defs>
<clipPath id="clip0_304_8276">
<rect width="24" height="24" fill="white"/>
</clipPath>
</defs>
</svg>
