<svg width="24" height="24" viewBox="0 0 24 24" fill="none" xmlns="http://www.w3.org/2000/svg">
<g id="&#230;&#168;&#161;&#229;&#158;&#139;&#233;&#162;&#156;&#232;&#137;&#178;2">
<path id="Union" fill-rule="evenodd" clip-rule="evenodd" d="M13.9775 3.04862C10.5677 2.71013 7.43575 4.15132 6.49399 6.98905L6.49364 6.9894C6.43931 7.15345 6.39846 7.31197 6.36385 7.48018C6.35105 7.54282 6.33963 7.60374 6.32717 7.67573L6.29982 7.83494L5.05972 8.47247L3.67356 9.17818C3.09245 9.47376 2.91178 10.2203 3.288 10.7512C3.33562 10.8186 3.38396 10.8854 3.43302 10.9516L3.61126 11.1891L4.09477 11.819L4.0792 11.8775C4.04098 12.0027 3.99343 12.1249 3.93695 12.243L3.53097 13.0792C3.50224 13.1394 3.47559 13.1954 3.45032 13.2501L3.37833 13.4097C3.05334 14.1486 2.92009 14.7225 3.04815 15.2769C3.31153 16.4194 3.89507 16.8566 5.14452 17.1539L5.35287 17.201L5.8755 17.3124C5.93477 17.3255 5.99395 17.339 6.05305 17.3529L6.21814 17.3927C8.04317 17.8513 8.40346 18.1434 9.249 20.308L9.26505 20.3496C9.19841 20.6742 9.35416 21.0156 9.66459 21.1708C10.8241 21.7506 11.9853 21.7503 13.4002 21.75L13.5 21.75C14.8206 21.75 15.9017 21.3877 16.3354 21.1708C16.7059 20.9856 16.8561 20.5351 16.6708 20.1646C16.6082 20.0393 16.5152 19.9392 16.4052 19.8688C16.3762 19.8297 16.3428 19.7841 16.3058 19.7327L16.1943 19.5766C16.0836 19.4178 15.9739 19.2537 15.8707 19.0886C15.7579 18.9086 15.6579 18.7356 15.5731 18.5736L15.535 18.4982C15.4488 18.3258 15.3855 18.1735 15.3474 18.0517L15.3329 18.0012L15.4256 17.9742C19.1238 16.8611 20.9107 14.2843 20.9966 11.0049C21.1108 6.61733 18.3544 3.48333 13.9775 3.04862ZM14.8695 20.0904C14.8111 20.0021 14.7537 19.9131 14.6974 19.8234C14.5721 19.6245 14.4547 19.4207 14.3454 19.2125C14.1122 18.7643 13.9658 18.3694 13.9301 18.0115C13.8699 17.4097 14.1447 16.8919 14.7549 16.7261C18.0464 15.8324 19.5402 13.7496 19.6128 10.9689C19.7084 7.30574 17.4947 4.78919 13.8405 4.42613C11.0114 4.14543 8.51526 5.29417 7.80781 7.4248L7.77389 7.52933C7.75105 7.60443 7.73755 7.66431 7.70813 7.82421L7.66418 8.07064C7.61019 8.37521 7.5555 8.55519 7.40771 8.73724L7.31426 8.84453C7.29792 8.86261 7.27875 8.87793 7.2575 8.88987L7.13913 8.95702L6.76534 9.15326L4.88563 10.1151L4.63262 10.2432L5.20751 10.9946C5.24489 11.0444 5.27327 11.0835 5.2968 11.1167C5.56642 11.4995 5.53804 11.9197 5.35322 12.4344C5.3058 12.5659 5.24731 12.705 5.1729 12.867L5.05488 13.1152L4.86798 13.4955C4.78664 13.6606 4.72573 13.7887 4.67208 13.9081L4.64578 13.9669C4.43223 14.4522 4.35505 14.7841 4.39727 14.9661C4.51668 15.4839 4.6925 15.6296 5.46813 15.8086L6.07035 15.938C6.21503 15.9692 6.34136 15.9975 6.46388 16.0273L6.55525 16.0498C8.88403 16.6349 9.54439 17.2497 10.5929 19.9449C11.3275 20.2387 12.1223 20.25 13.5 20.25C14.0254 20.25 14.497 20.1779 14.8695 20.0904Z" fill="#AF8A74"/>
<path id="Vector 55" d="M9 11.5001C7 11.0001 5.99998 10.5001 4.49998 11.5001V13.0001C3.99998 13.8334 3.29998 15.6001 4.49998 16.0001C5.99998 16.5001 7.99998 17.0001 8.49998 17.5001C8.99998 18.0001 9.99998 20.0001 9.99998 20.5001C9.99998 21.0001 15 20.5001 15 20.0001C15 19.5001 14.5 18.0001 14.5 17.5001C14.5 17.0001 16 16.5001 17 16.0001C18 15.5001 19.7288 13.0847 20 12.0001C20.5 10.0001 18 12.0001 17 11.5001L17 11.5C16 11.0001 15 10.5001 13 11.0001C11 11.5 11 12.0001 9 11.5001Z" fill="#AF8A74"/>
</g>
</svg>
