<svg width="24" height="24" viewBox="0 0 24 24" fill="none" xmlns="http://www.w3.org/2000/svg">
<g id="&#232;&#132;&#145;&#229;&#140;&#186;&#229;&#136;&#134;&#229;&#137;&#178;&#233;&#162;&#156;&#232;&#137;&#178;3" clip-path="url(#clip0_304_8280)">
<g id="&#232;&#132;&#145;&#229;&#140;&#186;&#229;&#136;&#134;&#229;&#137;&#178;&#233;&#162;&#156;&#232;&#137;&#178;q">
<path id="Union" fill-rule="evenodd" clip-rule="evenodd" d="M11.0525 5.24742C10.6904 5.08397 10.2977 4.99967 9.90045 5.00014C9.52541 5.00014 9.15419 5.07552 8.80884 5.22181C8.46349 5.36809 8.15104 5.58229 7.89006 5.85169C7.62907 6.12109 7.42487 6.4402 7.28957 6.79007C7.15428 7.13994 7.09065 7.51343 7.10246 7.88838C6.6845 7.99626 6.29712 8.19932 5.97058 8.48168C5.64404 8.76405 5.38717 9.11809 5.22002 9.51616C5.05288 9.91423 4.97998 10.3456 5.00703 10.7765C5.03407 11.2074 5.16033 11.6262 5.37593 12.0002C5.19177 12.3187 5.0722 12.6703 5.02406 13.035C4.97593 13.3997 5.00017 13.7703 5.0954 14.1257C5.19063 14.481 5.35498 14.8141 5.57905 15.1058C5.80312 15.3975 6.0825 15.6422 6.40121 15.8258V15.8503C6.40127 16.5016 6.60322 17.137 6.97925 17.6688C7.35528 18.2006 7.8869 18.6028 8.5009 18.8199C9.1149 19.037 9.78109 19.0584 10.4077 18.8811C11.0344 18.7038 11.5907 18.3365 12 17.8299C12.4093 18.3365 12.9656 18.7038 13.5923 18.8811C14.2189 19.0584 14.8851 19.037 15.4991 18.8199C16.1131 18.6028 16.6447 18.2006 17.0207 17.6688C17.3968 17.137 17.5987 16.5016 17.5988 15.8503V15.8258C17.9175 15.6422 18.1969 15.3975 18.421 15.1058C18.645 14.8141 18.8094 14.481 18.9046 14.1257C18.9998 13.7703 19.0241 13.3997 18.9759 13.035C18.9278 12.6703 18.8082 12.3187 18.6241 12.0002C18.8398 11.6262 18.9662 11.2073 18.9933 10.7763C19.0204 10.3453 18.9475 9.91387 18.7804 9.51571C18.6132 9.11755 18.3563 8.76343 18.0297 8.48101C17.7031 8.19859 17.3156 7.99553 16.8975 7.88768C16.9156 7.31174 16.7555 6.74426 16.4392 6.26267C16.1229 5.78107 15.6658 5.40881 15.1301 5.19667C14.5945 4.98453 14.0065 4.94284 13.4463 5.07729C12.8861 5.21175 12.3811 5.5158 12 5.94795C11.7376 5.64969 11.4145 5.41086 11.0525 5.24742Z" fill="#BFCF6B"/>
</g>
</g>
<defs>
<clipPath id="clip0_304_8280">
<rect width="24" height="24" fill="white"/>
</clipPath>
</defs>
</svg>
